<svg width="361" height="71" viewBox="0 0 361 71" fill="none" xmlns="http://www.w3.org/2000/svg">
<path d="M34.824 70.96C29.96 70.96 25.448 70.096 21.288 68.368C17.192 66.576 13.608 64.112 10.536 60.976C7.464 57.776 5.096 54.096 3.432 49.936C1.768 45.712 0.936 41.2 0.936 36.4C0.936 31.6 1.768 27.12 3.432 22.96C5.096 18.736 7.464 15.056 10.536 11.92C13.608 8.784 17.192 6.32 21.288 4.528C25.448 2.736 29.96 1.84 34.824 1.84C40.264 1.84 44.968 2.736 48.936 4.528C52.904 6.32 56.424 8.752 59.496 11.824L52.008 19.312C50.024 17.136 47.592 15.44 44.712 14.224C41.896 13.008 38.6 12.4 34.824 12.4C31.496 12.4 28.456 12.976 25.704 14.128C22.952 15.28 20.552 16.944 18.504 19.12C16.52 21.232 14.984 23.76 13.896 26.704C12.808 29.648 12.264 32.88 12.264 36.4C12.264 39.92 12.808 43.152 13.896 46.096C14.984 49.04 16.52 51.6 18.504 53.776C20.552 55.888 22.952 57.52 25.704 58.672C28.456 59.824 31.496 60.4 34.824 60.4C38.92 60.4 42.376 59.792 45.192 58.576C48.072 57.296 50.504 55.568 52.488 53.392L59.976 60.88C56.904 64.016 53.288 66.48 49.128 68.272C44.968 70.064 40.2 70.96 34.824 70.96ZM88.389 70.96C83.781 70.96 79.621 69.936 75.909 67.888C72.261 65.776 69.349 62.896 67.173 59.248C65.061 55.6 64.005 51.504 64.005 46.96C64.005 42.416 65.061 38.352 67.173 34.768C69.285 31.12 72.133 28.24 75.717 26.128C79.365 24.016 83.397 22.96 87.813 22.96C92.101 22.96 95.877 23.952 99.141 25.936C102.469 27.92 105.061 30.64 106.917 34.096C108.837 37.552 109.797 41.488 109.797 45.904C109.797 46.672 109.733 47.472 109.605 48.304C109.541 49.072 109.413 49.936 109.221 50.896H71.397V42.256H103.749L99.813 45.712C99.685 42.896 99.141 40.528 98.181 38.608C97.221 36.688 95.845 35.216 94.053 34.192C92.325 33.168 90.181 32.656 87.621 32.656C84.933 32.656 82.597 33.232 80.613 34.384C78.629 35.536 77.093 37.168 76.005 39.28C74.917 41.328 74.373 43.792 74.373 46.672C74.373 49.552 74.949 52.08 76.101 54.256C77.253 56.432 78.885 58.128 80.997 59.344C83.109 60.496 85.541 61.072 88.293 61.072C90.661 61.072 92.837 60.656 94.821 59.824C96.869 58.992 98.597 57.776 100.005 56.176L106.725 62.992C104.485 65.616 101.765 67.6 98.565 68.944C95.365 70.288 91.973 70.96 88.389 70.96ZM118.262 70V0.879997H128.822V70H118.262ZM140.575 70V0.879997H151.135V70H140.575ZM184.007 70.96C179.527 70.96 175.463 69.904 171.815 67.792C168.167 65.616 165.255 62.704 163.079 59.056C160.967 55.408 159.911 51.344 159.911 46.864C159.911 42.384 160.967 38.352 163.079 34.768C165.255 31.184 168.167 28.336 171.815 26.224C175.463 24.048 179.527 22.96 184.007 22.96C188.551 22.96 192.647 24.016 196.295 26.128C199.943 28.24 202.823 31.12 204.935 34.768C207.111 38.352 208.199 42.384 208.199 46.864C208.199 51.344 207.111 55.408 204.935 59.056C202.823 62.704 199.943 65.616 196.295 67.792C192.647 69.904 188.551 70.96 184.007 70.96ZM184.007 60.784C186.631 60.784 188.935 60.208 190.919 59.056C192.967 57.84 194.535 56.176 195.623 54.064C196.775 51.952 197.351 49.552 197.351 46.864C197.351 44.176 196.775 41.808 195.623 39.76C194.471 37.712 192.903 36.112 190.919 34.96C188.935 33.744 186.631 33.136 184.007 33.136C181.447 33.136 179.143 33.744 177.095 34.96C175.111 36.112 173.543 37.712 172.391 39.76C171.303 41.808 170.759 44.176 170.759 46.864C170.759 49.552 171.303 51.952 172.391 54.064C173.543 56.176 175.111 57.84 177.095 59.056C179.143 60.208 181.447 60.784 184.007 60.784ZM237.141 70.96C231.829 70.96 227.317 70 223.605 68.08C219.893 66.16 216.565 63.344 213.621 59.632L221.109 52.144C222.965 54.832 225.173 56.944 227.733 58.48C230.293 59.952 233.557 60.688 237.525 60.688C241.237 60.688 244.181 59.92 246.357 58.384C248.597 56.848 249.717 54.736 249.717 52.048C249.717 49.808 249.141 47.984 247.989 46.576C246.837 45.168 245.301 44.016 243.381 43.12C241.525 42.16 239.445 41.328 237.141 40.624C234.901 39.856 232.629 39.024 230.325 38.128C228.085 37.168 226.005 35.984 224.085 34.576C222.229 33.168 220.725 31.344 219.573 29.104C218.421 26.864 217.845 24.016 217.845 20.56C217.845 16.592 218.805 13.232 220.725 10.48C222.709 7.664 225.365 5.52 228.693 4.048C232.021 2.576 235.733 1.84 239.829 1.84C244.245 1.84 248.181 2.704 251.637 4.432C255.157 6.16 258.005 8.368 260.181 11.056L252.693 18.544C250.773 16.368 248.757 14.768 246.645 13.744C244.597 12.656 242.229 12.112 239.541 12.112C236.213 12.112 233.589 12.784 231.669 14.128C229.813 15.472 228.885 17.36 228.885 19.792C228.885 21.84 229.461 23.504 230.613 24.784C231.765 26 233.269 27.056 235.125 27.952C237.045 28.784 239.125 29.584 241.365 30.352C243.669 31.12 245.941 31.984 248.181 32.944C250.485 33.904 252.565 35.152 254.421 36.688C256.341 38.16 257.877 40.08 259.029 42.448C260.181 44.816 260.757 47.792 260.757 51.376C260.757 57.392 258.613 62.16 254.325 65.68C250.101 69.2 244.373 70.96 237.141 70.96ZM291.17 70.96C286.562 70.96 282.402 69.936 278.69 67.888C275.042 65.776 272.13 62.896 269.954 59.248C267.842 55.6 266.786 51.504 266.786 46.96C266.786 42.416 267.842 38.352 269.954 34.768C272.066 31.12 274.914 28.24 278.498 26.128C282.146 24.016 286.178 22.96 290.594 22.96C294.882 22.96 298.658 23.952 301.922 25.936C305.25 27.92 307.842 30.64 309.698 34.096C311.618 37.552 312.578 41.488 312.578 45.904C312.578 46.672 312.514 47.472 312.386 48.304C312.322 49.072 312.194 49.936 312.002 50.896H274.178V42.256H306.53L302.594 45.712C302.466 42.896 301.922 40.528 300.962 38.608C300.002 36.688 298.626 35.216 296.834 34.192C295.106 33.168 292.962 32.656 290.402 32.656C287.714 32.656 285.378 33.232 283.394 34.384C281.41 35.536 279.874 37.168 278.786 39.28C277.698 41.328 277.154 43.792 277.154 46.672C277.154 49.552 277.73 52.08 278.882 54.256C280.034 56.432 281.666 58.128 283.778 59.344C285.89 60.496 288.322 61.072 291.074 61.072C293.442 61.072 295.618 60.656 297.602 59.824C299.65 58.992 301.378 57.776 302.786 56.176L309.506 62.992C307.266 65.616 304.546 67.6 301.346 68.944C298.146 70.288 294.754 70.96 291.17 70.96ZM342.26 70.96C337.716 70.96 333.588 69.904 329.876 67.792C326.228 65.68 323.348 62.8 321.236 59.152C319.124 55.504 318.068 51.44 318.068 46.96C318.068 42.416 319.124 38.352 321.236 34.768C323.348 31.12 326.228 28.24 329.876 26.128C333.588 24.016 337.716 22.96 342.26 22.96C345.844 22.96 349.172 23.664 352.244 25.072C355.38 26.416 358.036 28.368 360.212 30.928L353.3 37.936C351.956 36.336 350.324 35.152 348.404 34.384C346.548 33.552 344.5 33.136 342.26 33.136C339.636 33.136 337.3 33.744 335.252 34.96C333.268 36.112 331.7 37.712 330.548 39.76C329.46 41.808 328.916 44.208 328.916 46.96C328.916 49.648 329.46 52.048 330.548 54.16C331.7 56.208 333.268 57.84 335.252 59.056C337.3 60.208 339.636 60.784 342.26 60.784C344.5 60.784 346.548 60.4 348.404 59.632C350.324 58.8 351.956 57.584 353.3 55.984L360.212 62.992C358.036 65.552 355.38 67.536 352.244 68.944C349.172 70.288 345.844 70.96 342.26 70.96Z" fill="black"/>
</svg>
